<svg width="560" height="353" viewBox="0 0 560 353" fill="none" xmlns="http://www.w3.org/2000/svg">
<path d="M276.011 351.616C321.205 351.616 357.841 314.989 357.841 269.808C357.841 224.627 321.205 188 276.011 188C230.817 188 194.181 224.627 194.181 269.808C194.181 314.989 230.817 351.616 276.011 351.616Z" fill="#F2F2F2"/>
<path d="M253.54 239.111C259.921 239.111 265.093 233.94 265.093 227.561C265.093 221.182 259.921 216.011 253.54 216.011C247.159 216.011 241.987 221.182 241.987 227.561C241.987 233.94 247.159 239.111 253.54 239.111Z" fill="#2F2E41"/>
<path d="M272.025 283C288.189 283 301.293 269.9 301.293 253.741C301.293 237.581 288.189 224.481 272.025 224.481C255.861 224.481 242.757 237.581 242.757 253.741C242.757 269.9 255.861 283 272.025 283Z" fill="#2F2E41"/>
<path d="M274.447 282.994C287.582 282.994 298.23 272.348 298.23 259.217C298.23 246.085 287.582 235.44 274.447 235.44C261.312 235.44 250.663 246.085 250.663 259.217C250.663 272.348 261.312 282.994 274.447 282.994Z" fill="#9E616A"/>
<path d="M290.598 234.979C286.431 232.439 281.657 231.065 276.776 231.001C271.896 230.937 267.088 232.184 262.855 234.614C258.621 237.043 255.119 240.565 252.713 244.81C250.307 249.056 249.087 253.87 249.179 258.749C261.298 261.791 274.029 264.118 286.953 259.476L290.005 252.009L291.805 259.482C295.74 261.09 299.686 262.451 303.632 259.466C303.793 254.601 302.674 249.779 300.387 245.482C298.1 241.185 294.724 237.563 290.598 234.979Z" fill="#2F2E41"/>
<path d="M242.783 196.207C234.795 192.545 224.771 194.264 218.119 200.006C211.467 205.748 208.304 215.094 209.589 223.786C210.899 232.653 216.291 240.289 221.261 247.748C226.231 255.208 231.087 263.383 231.081 272.346C231.077 278.802 228.513 284.993 223.95 289.561C219.387 294.129 213.198 296.701 206.74 296.714C214.319 299.976 222.23 303.302 230.472 302.915C238.714 302.529 247.354 297.231 248.698 289.092C249.667 283.228 246.789 277.509 244.389 272.071C240.479 263.21 237.653 253.91 235.972 244.372C235.17 239.82 234.648 235.034 236.133 230.657C237.315 227.413 239.508 224.635 242.39 222.732C245.271 220.829 248.688 219.902 252.137 220.088L254.86 217.638C256.072 208.936 250.772 199.869 242.783 196.207Z" fill="#2F2E41"/>
<path d="M337.582 324.544C323.405 340.67 303.453 350.577 282.034 352.124C260.614 353.672 239.445 346.736 223.096 332.815L230.115 313.236C231.701 309.758 234.204 306.778 237.356 304.614C240.507 302.451 244.188 301.186 248.004 300.955L252.47 300.681L263.117 291.5C263.117 291.5 291.805 290.476 291.379 289.986L308.757 300.435L308.742 300.363L315.573 300.782C319.39 301.012 323.071 302.276 326.223 304.44C329.375 306.604 331.878 309.585 333.463 313.063L337.582 324.544Z" fill="#6C63FF"/>
<path d="M164.104 81.953C164.075 98.1331 159.248 113.941 150.232 127.379C141.217 140.816 128.418 151.279 113.455 157.444C98.4912 163.609 82.035 165.2 66.1671 162.016C50.2992 158.831 35.7324 151.014 24.3085 139.552C12.8847 128.091 5.11697 113.5 1.98768 97.6256C-1.1416 81.7509 0.508081 65.3049 6.72812 50.3675C12.9481 35.43 23.4592 22.672 36.932 13.7066C50.4048 4.74134 66.2343 -0.0285576 82.4188 0.000128632C93.1727 -0.00870901 103.822 2.10715 113.756 6.22612C123.689 10.3451 132.711 16.386 140.301 24.0016C147.892 31.6172 153.902 40.6574 157.987 50.6026C162.072 60.5479 164.151 71.2021 164.104 81.953Z" fill="#F2F2F2"/>
<path d="M44.3461 55.1956C47.7297 44.415 55.4243 34.5274 66.0656 30.883C76.7076 27.2385 92.2901 32.7902 100.29 40.7614C114.925 55.3422 118.496 105.433 108.442 121.262C106.442 121.156 99.5411 121.078 97.5171 121.002L94.6538 111.461V120.908C91.4292 120.808 88.1793 120.739 84.9042 120.701C73.9235 120.565 63.4232 116.178 55.6108 108.463C47.7984 100.747 43.2825 90.3041 43.0124 79.3288C42.7504 68.8293 43.0127 59.444 44.3461 55.1956Z" fill="#2F2E41"/>
<path d="M81.06 90.9253C93.9398 90.9253 104.381 80.487 104.381 67.6106C104.381 54.7342 93.9398 44.2959 81.06 44.2959C68.1801 44.2959 57.739 54.7342 57.739 67.6106C57.739 80.487 68.1801 90.9253 81.06 90.9253Z" fill="#9E616A"/>
<path d="M60.9332 47.1351L87.7851 33.6934C93.2749 36.1665 98.0028 40.0628 101.479 44.9783C104.954 49.8938 107.052 55.6494 107.553 61.6483L108.222 69.6631L96.9776 66.8015L95.7457 56.553L93.8362 66.0021L88.6471 64.6821L88.6964 48.7714L83.5041 64.6708L64.9706 60.4139L60.9332 47.1351Z" fill="#2F2E41"/>
<path d="M142.997 135.945C128.82 152.072 108.869 161.978 87.449 163.526C66.0294 165.073 44.8603 158.138 28.5113 144.217L35.53 124.637C37.1162 121.16 39.6192 118.179 42.7708 116.016C45.9223 113.852 49.6035 112.587 53.4196 112.356L57.8847 112.082L68.5319 102.902C68.5319 102.902 97.2201 101.878 96.7945 101.387L114.172 111.837L114.157 111.765L120.989 112.183C124.805 112.413 128.487 113.678 131.638 115.841C134.79 118.005 137.293 120.986 138.878 124.464L142.997 135.945Z" fill="#6C63FF"/>
<path d="M275.773 163.616C320.966 163.616 357.603 126.989 357.603 81.808C357.603 36.6267 320.966 0 275.773 0C230.579 0 193.943 36.6267 193.943 81.808C193.943 126.989 230.579 163.616 275.773 163.616Z" fill="#F2F2F2"/>
<path d="M279.108 90.153C293.845 90.153 305.791 78.2097 305.791 63.4769C305.791 48.7441 293.845 36.8008 279.108 36.8008C264.371 36.8008 252.425 48.7441 252.425 63.4769C252.425 78.2097 264.371 90.153 279.108 90.153Z" fill="#FFB8B8"/>
<path d="M302.602 45.8541C302.602 45.8541 309.549 32.5763 294.265 31.3693C294.265 31.3693 281.235 19.5524 267.953 29.209C267.953 29.209 260.709 29.209 256.747 37.4046C256.747 37.4046 251.05 35.2443 249.798 41.0258C249.798 41.0258 245.628 53.0965 249.798 63.9602C253.967 74.8238 255.352 76.0309 255.352 76.0309C255.352 76.0309 252.426 62.5497 269.102 61.3426C285.777 60.1356 301.075 49.6919 302.465 62.9697C303.855 76.2474 305.382 70.2493 305.382 70.2493C305.382 70.2493 318.582 51.2859 302.602 45.8541Z" fill="#2F2E41"/>
<path d="M336.861 136.205C322.684 152.332 302.732 162.238 281.312 163.786C259.893 165.333 238.724 158.398 222.375 144.477L229.393 124.898C230.98 121.42 233.483 118.44 236.634 116.276C239.786 114.112 243.467 112.847 247.283 112.616L251.748 112.342L262.395 103.162C262.395 103.162 291.084 102.138 290.658 101.647L308.035 112.097L308.021 112.025L314.852 112.443C318.668 112.673 322.35 113.938 325.502 116.102C328.653 118.265 331.156 121.246 332.742 124.724L336.861 136.205Z" fill="#6C63FF"/>
<path d="M475.212 163.616C520.406 163.616 557.042 126.989 557.042 81.808C557.042 36.6267 520.406 0 475.212 0C430.019 0 393.382 36.6267 393.382 81.808C393.382 126.989 430.019 163.616 475.212 163.616Z" fill="#F2F2F2"/>
<path d="M441.816 49.809C440.693 55.8414 438.851 61.7177 436.33 67.3124C421.895 97.841 463.003 87.8903 477.694 87.8903C493.756 87.8903 509.124 96.3341 506.777 58.8152C505.774 42.7889 493.756 29.7402 477.694 29.7402C463.974 29.7402 444.685 35.8367 441.816 49.809Z" fill="#2F2E41"/>
<path d="M475.288 87.8833C488.34 87.8833 498.921 77.3053 498.921 64.2566C498.921 51.2079 488.34 40.6299 475.288 40.6299C462.235 40.6299 451.654 51.2079 451.654 64.2566C451.654 77.3053 462.235 87.8833 475.288 87.8833Z" fill="#FFB6B6"/>
<path d="M459.238 40.1724C463.379 37.6484 468.123 36.2831 472.973 36.2191C477.822 36.1552 482.6 37.3951 486.807 39.809C491.013 42.223 494.493 45.7224 496.884 49.9413C499.275 54.1603 500.487 58.9439 500.396 63.7918C488.353 66.8145 475.702 69.1276 462.86 64.5148L459.827 57.0943L458.039 64.5203C454.128 66.1184 450.207 67.4706 446.286 64.5049C446.126 59.6706 447.238 54.8789 449.511 50.609C451.784 46.339 455.138 42.7402 459.238 40.1724Z" fill="#2F2E41"/>
<path d="M538.839 136.205C524.662 152.332 504.711 162.238 483.291 163.786C461.872 165.333 440.702 158.398 424.353 144.477L431.372 124.898C432.958 121.42 435.461 118.44 438.613 116.276C441.764 114.112 445.446 112.847 449.262 112.616L453.727 112.342L464.374 103.162C464.374 103.162 493.062 102.138 492.637 101.647L510.014 112.097L509.999 112.025L516.831 112.443C520.647 112.673 524.329 113.938 527.48 116.102C530.632 118.265 533.135 121.246 534.72 124.724L538.839 136.205Z" fill="#6C63FF"/>
<path d="M478.17 351.616C523.363 351.616 560 314.989 560 269.808C560 224.627 523.363 188 478.17 188C432.976 188 396.34 224.627 396.34 269.808C396.34 314.989 432.976 351.616 478.17 351.616Z" fill="#F2F2F2"/>
<path d="M475.911 279.942C490.338 279.942 502.032 268.251 502.032 253.828C502.032 239.406 490.338 227.714 475.911 227.714C461.485 227.714 449.79 239.406 449.79 253.828C449.79 268.251 461.485 279.942 475.911 279.942Z" fill="#FFB6B6"/>
<path d="M539.561 324.544C525.384 340.67 505.432 350.577 484.012 352.124C462.593 353.672 441.424 346.736 425.075 332.815L432.093 313.236C433.68 309.758 436.183 306.778 439.334 304.614C442.486 302.451 446.167 301.186 449.983 300.955L454.448 300.681L465.095 291.5C465.095 291.5 493.784 290.476 493.358 289.986L510.735 300.435L510.721 300.363L517.552 300.782C521.368 301.012 525.05 302.276 528.202 304.44C531.353 306.604 533.856 309.585 535.442 313.063L539.561 324.544Z" fill="#6C63FF"/>
<path d="M503.46 237.633C501.253 229.735 496.238 222.913 489.357 218.449C483.873 214.943 477.03 213.152 470.817 215.007C464.604 216.861 459.46 222.957 459.867 229.543C457.624 228.78 455.075 229.795 453.433 231.529C451.792 233.263 450.909 235.596 450.277 237.918C448.283 245.302 448.415 253.098 450.658 260.411L450.534 261.46C453.565 260.959 455.865 258.359 457.294 255.589C458.724 252.819 459.547 249.746 461.096 247.043C462.646 244.341 465.219 241.93 468.288 241.846L468.018 246.537C470.659 245.176 473.3 243.816 475.941 242.456C475.312 243.958 474.684 245.46 474.056 246.963C476.362 245.999 478.669 245.035 480.975 244.072C480.717 245.516 480.459 246.961 480.202 248.405C482.489 243.2 489.563 240.914 494.375 243.824C497.169 245.514 499.003 248.526 499.967 251.689C500.932 254.852 501.122 258.198 501.306 261.505C504.87 254.065 505.635 245.591 503.46 237.633Z" fill="#2F2E41"/>
<path d="M81.8302 351.616C127.024 351.616 163.66 314.989 163.66 269.808C163.66 224.627 127.024 188 81.8302 188C36.6366 188 0 224.627 0 269.808C0 314.989 36.6366 351.616 81.8302 351.616Z" fill="#F2F2F2"/>
<path d="M82.5613 273.219C100.583 273.219 115.193 258.613 115.193 240.597C115.193 222.58 100.583 207.974 82.5613 207.974C64.5396 207.974 49.9301 222.58 49.9301 240.597C49.9301 258.613 64.5396 273.219 82.5613 273.219Z" fill="#2F2E41"/>
<path d="M82.5746 277.504C98.6742 277.504 111.725 264.456 111.725 248.361C111.725 232.266 98.6742 219.218 82.5746 219.218C66.475 219.218 53.4237 232.266 53.4237 248.361C53.4237 264.456 66.475 277.504 82.5746 277.504Z" fill="#FFB8B8"/>
<path d="M142.997 323.562C128.82 339.689 108.869 349.595 87.449 351.143C66.0294 352.69 44.8603 345.755 28.5113 331.834L35.53 312.254C37.1162 308.777 39.6192 305.797 42.7708 303.633C45.9223 301.469 49.6035 300.204 53.4196 299.973L57.8847 299.699L68.5319 290.519C68.5319 290.519 97.2201 289.495 96.7945 289.004L114.172 299.454L114.157 299.382L120.989 299.8C124.805 300.03 128.487 301.295 131.638 303.459C134.79 305.622 137.293 308.603 138.878 312.081L142.997 323.562Z" fill="#6C63FF"/>
<path d="M113.329 238.141C113.534 235.965 113.627 233.78 113.61 231.595C113.729 227.273 112.937 222.974 111.285 218.978C109.254 214.554 105.632 211.055 101.138 209.178C96.6851 207.383 91.708 207.387 87.2578 209.19C83.2399 206.653 78.7756 204.641 74.0741 204.392C69.3726 204.142 64.4018 205.886 61.5045 209.725C60.8575 210.738 60.1227 211.692 59.3085 212.577C56.9795 214.733 53.4402 214.422 50.3446 213.981C51.733 215.171 53.1218 216.36 54.511 217.55C52.8303 217.989 51.1495 218.428 49.4685 218.867C51.43 220.056 53.3912 221.245 55.3523 222.435C49.6585 225.851 47.0705 233.308 47.7541 240.081C48.4008 246.494 51.4974 252.357 55.1992 257.569C56.6758 254.453 56.3577 250.726 56.3333 247.217C56.3198 246.079 56.3892 244.941 56.5411 243.813C69.0513 246.811 82.1228 248.735 95.3789 243.974L98.0392 237.465C98.4125 237.503 98.786 237.539 99.1592 237.579L100.7 243.98C104.195 245.408 107.696 246.656 111.199 245.344C111.369 246.333 111.472 247.342 111.551 248.312C111.852 247.152 112.112 245.983 112.348 244.81C112.811 244.562 113.254 244.279 113.674 243.963C113.758 242.016 113.643 240.065 113.329 238.141Z" fill="#2F2E41"/>
</svg>
