<svg width="560" height="287" viewBox="0 0 560 287" fill="none" xmlns="http://www.w3.org/2000/svg">
<path d="M535.144 158.251L533.39 172.219L529.036 206.915H441.572C442.255 199.138 443.189 187.945 444.186 175.862C444.285 174.656 444.388 173.441 444.486 172.219C446.987 141.846 449.725 107.475 449.725 107.475L461.223 109.617L483.533 113.765L492.623 115.455L516.967 119.988C529.105 122.243 537.453 139.817 535.144 158.251Z" fill="#F2F2F2"/>
<path d="M468.985 51.2688L479.741 70.0906L459.069 84.7411L450.25 61.6055L468.985 51.2688Z" fill="#FFB6B6"/>
<path d="M455.292 69.075C470.008 69.075 481.938 57.1454 481.938 42.4294C481.938 27.7135 470.008 15.7838 455.292 15.7838C440.576 15.7838 428.646 27.7135 428.646 42.4294C428.646 57.1454 440.576 69.075 455.292 69.075Z" fill="#FFB6B6"/>
<path d="M453.378 48.3863C451.262 45.1663 452.092 43.4821 450.321 42.2987C450.321 42.2987 449.608 41.8225 444.507 41.551C443.365 33.3308 441.939 32.3339 441.939 32.3339C440.296 31.185 437.857 31.5583 436.34 32.261C433.132 33.7472 433.504 36.9574 431.343 37.5717C428.359 38.4204 422.929 33.6363 422.394 28.1595C421.958 23.692 424.836 19.353 425.978 19.5825C427.11 19.8101 429.82 16.3503 431.283 16.4037C432.282 16.4401 436.365 14.6655 437.464 14.8042C438.663 14.9558 442.618 17.0197 442.783 16.5482C443.928 13.2714 443.592 12.3622 444.563 11.4248C446.285 9.76374 449.102 10.9205 453.522 11.5415C462.614 12.8192 464.201 9.82108 468.861 11.8532C471.215 12.8798 473.184 15.6482 477.028 21.1433C482.402 28.828 485.09 32.6703 485.107 37.1519C485.125 41.7223 482.911 41.4322 481.939 48.1983C480.857 55.73 483.156 59.174 480.644 61.6209C478.703 63.5121 474.757 63.961 472.684 62.3012C469.134 59.4596 473.78 52.6026 469.851 47.5929C467.44 44.5177 462.591 43.1494 460.37 44.6695C457.858 46.3883 459.242 51.4331 457.476 51.9115C455.963 52.3212 453.746 48.9474 453.378 48.3863Z" fill="#2F2E41"/>
<path d="M515.447 153.331C514.704 166.039 511.752 170.051 510.718 185.059C510.492 188.353 510.356 192.178 510.356 196.739C510.356 197.902 510.363 199.026 510.363 200.125C510.363 202.463 510.318 204.673 510.046 206.914C509.84 208.704 509.485 210.506 508.897 212.406H451.508C451.502 212.393 451.502 212.38 451.495 212.367C451.159 210.907 450.946 209.511 450.784 208.174C450.733 207.748 450.687 207.328 450.649 206.914C450.597 206.43 450.552 205.952 450.507 205.48C450.332 203.6 450.158 201.824 449.744 200.125C449.189 197.779 448.181 195.57 446.113 193.438C445.267 192.566 444.421 191.887 443.594 191.293C443.433 191.183 443.277 191.073 443.116 190.963C440.829 189.393 438.665 188.263 436.791 185.059C436.759 185.013 436.733 184.962 436.707 184.917C436.384 184.354 435.544 182.881 434.937 180.918C434.297 178.876 433.91 176.311 434.607 173.688C436.268 167.473 442.418 166.853 447.444 160.573C447.987 159.895 448.523 159.146 449.034 158.312C451.308 154.617 451.921 151.361 452.645 147.491C452.761 146.864 452.865 146.244 452.948 145.643C453.013 145.191 453.072 144.745 453.117 144.306C453.517 140.617 453.323 137.438 452.852 134.596C451.314 125.286 446.779 119.524 449.983 111.17C450.991 108.547 452.419 106.577 453.86 104.891C456.909 101.318 460.042 98.9986 459.5 94.3861C458.95 89.7344 455.423 89.0947 455.029 85.031C454.829 82.9768 455.5 80.8125 456.76 78.687V78.6807C460.792 71.8388 470.857 65.5398 477.253 65.7402C478.435 65.7726 479.482 66.0373 480.354 66.5477C483.513 68.4083 482.195 72.4719 487.034 78.1702C490.632 82.4017 494.702 84.0944 496.247 84.8954C502.365 88.0871 507.339 97.4999 510.718 109.536C510.744 109.626 510.77 109.716 510.796 109.814C512.883 117.353 514.356 125.913 515.086 134.596C515.395 138.272 515.577 141.967 515.615 145.624C515.648 148.544 515.583 151.077 515.447 153.331Z" fill="#6C63FF"/>
<path d="M472.472 196.868L471.302 200.125L470.566 202.166L468.86 206.914L466.883 212.406H454.176L456.308 206.914L457.296 204.356L458.937 200.125L461.689 193.018L472.472 196.868Z" fill="#FFB6B6"/>
<path d="M510.919 108.424C510.887 108.845 510.841 109.31 510.796 109.814C510.292 114.943 509.103 124.123 507.365 134.596C506.448 140.119 505.376 146.005 504.167 151.852C501.571 164.469 498.34 176.893 494.69 185.059C494.038 186.532 493.366 187.863 492.68 189.038C492.157 189.936 491.608 190.821 491.033 191.693C489.173 194.556 487.086 197.269 484.922 199.802C484.838 199.911 484.741 200.015 484.644 200.125C484.295 200.538 483.933 200.945 483.571 201.352C481.801 203.348 479.992 205.209 478.242 206.914C476.11 208.995 474.055 210.836 472.214 212.406H451.579L451.495 212.367L448.523 211.049C448.523 211.049 449.369 210.054 450.785 208.174C451.075 207.793 451.385 207.373 451.721 206.914C452.135 206.352 452.581 205.732 453.058 205.06C454.053 203.652 455.184 201.998 456.398 200.125C458.75 196.5 461.431 192.042 464.138 186.881C464.449 186.28 464.765 185.672 465.082 185.059C465.088 185.039 465.101 185.02 465.107 185C465.644 183.954 466.174 182.875 466.703 181.777C471.193 172.435 472.479 164.682 472.847 162.169C473.364 158.616 474.081 153.648 473.887 148.182C473.758 144.577 473.235 140.765 471.988 136.98V136.973C471.729 136.179 471.439 135.384 471.109 134.596C470.521 133.181 469.823 131.786 468.996 130.41C465.347 124.35 462.381 124.098 460.023 117.495C459.325 115.537 457.742 111.119 458.227 106.454V106.448C458.285 105.873 458.382 105.291 458.511 104.71V104.703C458.543 104.542 458.589 104.374 458.634 104.212C459.002 102.785 459.61 101.37 460.533 100.026C462.336 97.416 464.797 95.8652 467 94.9416L467.007 94.935C469.552 93.8757 471.749 93.6495 472.175 93.6107C481.614 92.771 488.934 100.704 492.933 105.039C494.477 106.712 495.892 108.115 497.184 109.258C507.242 118.238 510.001 112.501 510.718 109.536C510.828 109.077 510.887 108.683 510.919 108.424Z" fill="#6C63FF"/>
<path d="M510.95 108.089C510.95 108.121 510.944 108.231 510.918 108.412C510.931 108.315 510.938 108.218 510.944 108.127C510.944 108.108 510.944 108.095 510.95 108.089Z" fill="#6C63FF"/>
<path d="M459.644 244.411H113.331C110.113 244.411 107.49 247.027 107.49 250.245C107.49 253.469 110.113 256.085 113.331 256.085H459.644C462.861 256.085 465.478 253.469 465.478 250.245C465.478 247.027 462.861 244.411 459.644 244.411Z" fill="#E6E6E6"/>
<path d="M382.79 274.569H190.177C186.96 274.569 184.344 277.185 184.344 280.402C184.344 283.62 186.96 286.242 190.177 286.242H382.79C386.007 286.242 388.63 283.62 388.63 280.402C388.63 277.185 386.007 274.569 382.79 274.569Z" fill="#E6E6E6"/>
<path d="M151.865 52.5073L173.691 43.322L183.053 62.5131L160.117 71.8746L151.865 52.5073Z" fill="#FFB6B6"/>
<path opacity="0.1" d="M151.865 52.5073L173.691 43.322L183.053 62.5131L160.117 71.8746L151.865 52.5073Z" fill="black"/>
<path d="M154.968 45.1943L176.5 70.0023C176.5 70.0023 161.522 117.278 146.543 121.491C131.565 125.703 103.948 146.299 103.948 146.299L69.3105 123.831L86.1613 99.023C86.1613 99.023 126.884 43.322 137.65 43.322C148.415 43.322 154.968 45.1943 154.968 45.1943Z" fill="#6C63FF"/>
<path d="M125.878 206.915H75.7567L72.5878 202.678L59.6502 185.383L56.6732 181.404C56.6732 181.404 45.4394 160.809 47.7798 142.086C50.1201 123.363 74.4601 119.15 74.4601 119.15H75.4618L105.259 145.334L103.481 169.703L112.917 185.383L125.878 206.915Z" fill="#2F2E41"/>
<path d="M86.0217 206.915H72.5879V187.021L86.0217 206.915Z" fill="#2F2E41"/>
<path d="M375.77 176.714L374.099 185.383L369.952 206.915H286.639C287.289 202.089 288.179 195.142 289.129 187.644C289.222 186.895 289.321 186.141 289.414 185.383C291.797 166.534 294.404 145.203 294.404 145.203L305.357 146.533L326.608 149.107L335.267 150.156L358.456 152.969C370.017 154.368 377.97 165.275 375.77 176.714Z" fill="#F2F2F2"/>
<path d="M493.672 206.915H448.484C449.172 206.105 449.561 205.637 449.561 205.637L463.107 203.399L491.018 198.793C491.018 198.793 492.292 202.084 493.672 206.915Z" fill="#2F2E41"/>
<path d="M301.998 61.8695L321.65 89.6611L287.371 90.6848L283.691 64.5672L301.998 61.8695Z" fill="#A0616A"/>
<path opacity="0.1" d="M301.998 61.8695L321.65 89.6611L287.371 90.6848L283.691 64.5672L301.998 61.8695Z" fill="black"/>
<path d="M205.085 119.452C202.563 112.178 196.766 107.583 192.137 109.188C187.508 110.794 185.801 117.991 188.324 125.267C189.293 128.187 190.946 130.833 193.146 132.984L204.219 163.669L218.508 158.166L206.075 128.5C206.472 125.448 206.133 122.345 205.085 119.452Z" fill="#A0616A"/>
<path d="M338.107 105.291L338.08 133.614L335.445 144.075L330.025 165.593L326.079 185.383L323.139 200.127L322.091 205.393C321.3 205.922 320.513 206.428 319.727 206.915H251.262C247.372 204.579 245.195 202.763 245.195 202.763C245.195 202.763 246.272 201.752 247.503 200.127C249.581 197.385 252.095 192.891 250.555 188.599C250.232 187.7 250.148 186.605 250.246 185.383C250.873 177.323 259.327 163.692 259.327 163.692L257.576 143.462L256.808 134.597L262.221 91.3697L279.862 81.1142L282.908 80.8195L312.973 79.1953L325.399 79.9115L325.965 80.066L338.107 105.291Z" fill="#CCCCCC"/>
<path d="M339.442 206.915H324.463L323.803 200.127L323.789 199.992L328.03 199.702L339.062 198.948L339.254 203.011L339.404 206.128L339.442 206.915Z" fill="#FFB6B6"/>
<path d="M343.129 112.139L349.421 149.056L344.286 185.383L343.486 191.037L342.072 201.021L341.637 204.092L341.651 204.424L341.758 206.915H323.971L323.316 200.127L323.26 199.519L321.921 185.617L321.898 185.383L319.057 155.904L324.627 134.597L325.039 133.029V133.024L327.462 96.5422L325.585 79.963L325.566 79.8085C325.604 79.8319 325.637 79.8554 325.674 79.8787C325.772 79.9396 325.871 80.0004 325.964 80.066C336.899 87.0029 343.414 99.1729 343.129 112.139Z" fill="#CCCCCC"/>
<path d="M268.593 98.4439L261.753 91.3692C261.753 91.3692 247.111 97.9703 246.381 101.632C245.651 105.295 219.798 159.083 219.798 159.083L208.551 129.042L193.91 138.817C193.91 138.817 205.658 185.456 216.644 187.646C227.631 189.835 264.453 132.444 264.453 132.444L268.593 98.4439Z" fill="#CCCCCC"/>
<path d="M546.323 185.059H13.6705C6.13114 185.059 0 191.196 0 198.735C0 206.275 6.13113 212.406 13.6705 212.406H546.323C553.863 212.406 560 206.275 560 198.735C560 191.196 553.863 185.059 546.323 185.059Z" fill="#E6E6E6"/>
<path d="M334.991 143.384L333.956 191.709C333.855 196.387 330.034 200.127 325.355 200.127H236.457C231.889 200.127 228.117 196.556 227.868 191.995L225.226 143.669C224.957 138.741 228.88 134.597 233.816 134.597H326.391C331.214 134.597 335.094 138.562 334.991 143.384Z" fill="#3F3D56"/>
<path d="M191.478 64.1727C203.225 64.1727 212.747 54.6502 212.747 42.9037C212.747 31.1571 203.225 21.6346 191.478 21.6346C179.731 21.6346 170.209 31.1571 170.209 42.9037C170.209 54.6502 179.731 64.1727 191.478 64.1727Z" fill="#FFB6B6"/>
<path d="M155.904 98.555L158.244 123.831L174.159 187.958L160.41 192.776L137.181 122.895L133.973 94.8104L155.904 98.555Z" fill="#FFB6B6"/>
<path d="M149.575 143.384L148.54 191.709C148.439 196.387 144.618 200.127 139.939 200.127H51.0414C46.4729 200.127 42.7012 196.556 42.4519 191.995L39.81 143.669C39.5406 138.741 43.464 134.597 48.3995 134.597H140.975C145.798 134.597 149.678 138.562 149.575 143.384Z" fill="#3F3D56"/>
<path d="M176.694 200.454C185.971 200.454 193.491 197.128 193.491 193.025C193.491 188.921 185.971 185.595 176.694 185.595C167.417 185.595 159.896 188.921 159.896 193.025C159.896 197.128 167.417 200.454 176.694 200.454Z" fill="#FFB6B6"/>
<path d="M122.904 102.419L132.5 51.2793C132.5 51.2793 159.18 47.5347 160.116 56.4281C161.052 65.3216 159.447 108.785 159.447 108.785L122.904 102.419Z" fill="#6C63FF"/>
<path d="M182.891 46.2479C182.891 46.2479 196.048 41.5522 201.598 39.0257C207.148 36.4991 218.174 54.1214 218.419 44.8145C218.665 35.5076 214.855 31.6047 214.855 31.6047C214.855 31.6047 213.903 11.2445 193.391 13.79C193.391 13.79 197.903 3.60354 183.092 2.02839C168.282 0.453249 145.241 36.2178 147.304 41.5626C149.368 46.9075 151.842 51.3263 145.987 57.0411C140.133 62.7559 129.17 95.0087 137.511 103.688C145.852 112.367 146.399 116.133 140.684 121.532C134.97 126.932 121.462 138.672 136.067 140.71C150.672 142.748 134.731 141.226 145.619 131.649C156.508 122.071 172.396 122.462 166.464 107.096C160.531 91.7296 170.838 69.7097 169.548 66.3692C168.259 63.0287 172.438 41.8162 172.438 41.8162C172.438 41.8162 182.164 40.3872 182.891 46.2479Z" fill="#2F2E41"/>
<path d="M291.489 71.9287C304.276 71.9287 314.642 61.5628 314.642 48.7758C314.642 35.9888 304.276 25.6229 291.489 25.6229C278.702 25.6229 268.336 35.9888 268.336 48.7758C268.336 61.5628 278.702 71.9287 291.489 71.9287Z" fill="#A0616A"/>
<path d="M293.338 17.6483C292.668 18.0394 291.77 17.4477 291.556 16.7023C291.341 15.9569 291.591 15.1655 291.839 14.4305L293.088 10.7305C293.974 8.10636 294.915 5.39053 296.833 3.39323C299.73 0.378618 304.332 -0.388285 308.476 0.167309C313.796 0.880803 319.046 3.76195 321.52 8.52629C323.994 13.2906 322.941 19.9386 318.47 22.9111C324.842 30.2136 327.063 38.352 326.712 48.0368C326.361 57.7217 315.807 66.6349 308.924 73.4575C307.387 72.5258 305.99 68.1593 306.835 66.5731C307.681 64.9869 306.469 63.1491 307.516 61.688C308.563 60.2269 309.439 62.5534 308.381 61.1006C307.713 60.1839 310.319 58.0749 309.326 57.5262C304.525 54.8723 302.929 48.8878 299.913 44.3051C296.276 38.7774 290.051 35.034 283.463 34.413C279.834 34.0709 276.001 34.6905 273.027 36.7973C270.052 38.9041 268.126 42.6689 268.816 46.2481C267.03 44.4343 266.141 41.7762 266.476 39.2526C266.811 36.729 268.364 34.3953 270.562 33.1111C269.226 28.6912 270.371 23.607 273.473 20.1868C276.575 16.7665 289.159 17.3491 293.688 18.2492L293.338 17.6483Z" fill="#2F2E41"/>
<path d="M294.041 34.5472C300.039 35.1947 304.371 40.3907 308.028 45.1892C310.136 47.955 312.344 51.0093 312.291 54.4863C312.237 58.0017 309.887 61.0169 308.764 64.3485C306.928 69.794 308.717 76.2728 313.088 80.0041C308.769 80.8236 304.1 77.5854 303.355 73.2534C302.487 68.2103 306.31 63.343 305.857 58.2458C305.458 53.7552 301.919 50.2991 298.911 46.9415C295.902 43.5838 293.077 39.1283 294.461 34.8377L294.041 34.5472Z" fill="#2F2E41"/>
<path d="M383.717 187.985C377.776 191.364 374.703 197.169 376.855 200.95C379.006 204.731 385.565 205.056 391.509 201.674C393.901 200.356 395.943 198.484 397.464 196.215L422.458 181.578L415.339 169.996L391.456 185.655C388.727 185.802 386.074 186.601 383.717 187.985Z" fill="#FFB6B6"/>
<path d="M468.342 80.653C467.595 80.357 461.041 77.8752 455.058 81.1519C448.185 84.916 447.124 93.5085 446.751 96.5222C445.891 103.484 448.425 105.044 448.96 112.092C449.961 125.278 452.599 110.236 448.385 116.255C446.927 118.338 432.029 150.623 423.813 156.947C407.834 169.246 397.688 177.907 397.688 177.907L409.271 190.491C409.271 190.491 427.576 185.613 443.755 175.108C460.351 164.332 468.649 158.944 475.068 148.404C475.621 147.496 488.849 125.032 481.745 100.193C480.125 94.527 477.156 84.146 468.342 80.653Z" fill="#6C63FF"/>
<path d="M528.159 143.384L527.124 191.709C527.023 196.387 523.202 200.127 518.523 200.127H429.625C425.057 200.127 421.285 196.556 421.036 191.995L418.394 143.669C418.125 138.741 422.048 134.597 426.983 134.597H519.559C524.382 134.597 528.262 138.562 528.159 143.384Z" fill="#3F3D56"/>
</svg>
