<svg width="360" height="376" viewBox="0 0 360 376" fill="none" xmlns="http://www.w3.org/2000/svg">
<path d="M315.311 317.768L109.693 199.941L88.4897 212.304L294.881 331.151L315.311 317.768Z" fill="#E8EAF7"/>
<path d="M317.875 134.458V301.835L305.888 310.582L305.627 310.775L268.837 289.674L237.122 271.479L82.954 167.089L70.9702 59.198V8.28995L71.2754 8.10708L84.8433 0L317.705 134.359L317.875 134.458Z" fill="#4346A3"/>
<path d="M317.875 134.458V301.835L305.888 310.582L305.627 310.775L268.837 289.674L299.311 147.59L317.705 134.36L317.875 134.458Z" fill="#364085"/>
<path d="M241.817 252.034L194.743 307.731L98.2789 252.034V240.846L194.743 224.184L241.817 252.034Z" fill="#364085"/>
<path d="M240.073 240.561L193.569 295.36L105.89 244.94L98.2789 240.561L193.569 213.161L240.073 240.561Z" fill="#4346A3"/>
<path d="M305.888 143.543V310.924L305.627 310.775L237.122 271.479L70.9702 176.178V7.92749L71.2754 8.10697L305.888 143.543Z" fill="#D1D4F5"/>
<path d="M84.0157 24.9001V174.465L292.846 294.242V145.453L84.0157 24.9001Z" fill="#4346A3"/>
<path d="M87.4551 29.3333V173.974L289.406 289.81V145.917L87.4551 29.3333Z" fill="white"/>
<path d="M180.687 99.7302L102.468 54.5757V172.961L180.687 217.828V99.7302Z" fill="#FB95E1"/>
<path d="M107.861 113.269V127.742L175.294 166.673V152.199L107.861 113.269Z" fill="white"/>
<path d="M107.861 148.247L175.294 187.174V172.701L107.861 133.774V148.247Z" fill="white"/>
<path d="M107.861 168.749L175.294 207.679V193.205L107.861 154.279V168.749Z" fill="white"/>
<path d="M141.601 96.164L107.861 76.6853V91.1589L141.601 110.638V96.164Z" fill="white"/>
<path d="M180.663 99.6012L185.897 96.3841L108.177 50.9553L102.539 54.5754L180.663 99.6012Z" fill="#F8778D"/>
<path d="M180.663 99.6014V217.798L185.09 214.58L185.897 96.3843L180.663 99.6014Z" fill="#F8778D"/>
<path d="M189.547 104.843V222.907L267.765 267.774V149.998L189.547 104.843Z" fill="#91DAFB"/>
<path d="M194.438 163.12V177.594L261.87 216.524V202.05L194.438 163.12Z" fill="white"/>
<path d="M194.438 198.099L261.87 237.025V222.552L194.438 183.625V198.099Z" fill="white"/>
<path d="M194.438 218.603L261.87 257.53V243.057L194.438 204.13V218.603Z" fill="white"/>
<path d="M228.178 146.015L194.438 126.537V141.01L228.178 160.489V146.015Z" fill="white"/>
<path d="M267.643 149.856L272.877 146.639L195.16 101.21L189.52 104.826L267.643 149.856Z" fill="#4D86ED"/>
<path d="M267.643 149.856V268.052L272.073 264.835L272.877 146.639L267.643 149.856Z" fill="#4D86ED"/>
<path d="M44.3059 375.205C68.7754 375.205 88.6118 362.915 88.6118 347.755C88.6118 332.594 68.7754 320.304 44.3059 320.304C19.8364 320.304 0 332.594 0 347.755C0 362.915 19.8364 375.205 44.3059 375.205Z" fill="#E8EAF7"/>
<path d="M109.927 146.798C120.853 123.448 116.636 140.292 116.636 140.292C122.962 139.141 121.812 147.563 115.87 150.052" fill="#FFBD8B"/>
<path d="M118.936 148.505L108.401 166.114L101.83 177.076C100.901 178.63 99.5352 179.877 97.9025 180.662L65.6584 196.179L63.0839 186.66L60.8486 178.39L91.495 168.959L110.741 144.411L118.936 148.505Z" fill="#2ED4E2"/>
<g style="mix-blend-mode:multiply" opacity="0.31">
<path d="M108.401 165.935L101.83 176.91C100.901 178.463 99.5352 179.71 97.9024 180.496L65.6584 196.013L63.0839 186.497C82.0145 185.776 101.206 177.875 108.401 165.935Z" fill="#2C4E8E"/>
</g>
<path d="M23.3164 236.07C30.1817 246.67 23.2621 241.241 23.2621 241.241C22.7872 250.656 13.7035 249.924 17.3804 235.051" fill="#FFBD8B"/>
<path d="M58.5488 365.753C56.2456 364.605 53.5626 360.586 53.5626 360.586V366.712H51.2628C51.2628 366.712 49.3464 351.016 49.3464 349.485C49.3464 347.954 51.2628 347.572 51.2628 347.572L51.1577 346.718L50.113 338.195L58.9321 337.619L57.2056 347.954C57.2056 347.954 61.2318 355.611 62.9719 356.759C63.5797 357.14 64.2904 357.324 65.0071 357.287C65.9365 357.287 66.7268 357.192 67.1814 358.1C67.9412 359.637 63.1483 366.905 58.5488 365.753Z" fill="#364085"/>
<path d="M65.0003 357.287C57.5074 360.701 53.3963 354.141 51.1576 346.718L50.1129 338.195L58.932 337.619L57.2055 347.954C57.2055 347.954 61.2318 355.611 62.9719 356.759C63.5777 357.139 64.2859 357.323 65.0003 357.287Z" fill="#FFBD8B"/>
<path d="M33.377 345.523C33.377 347.216 25.7824 351.537 22.2106 348.425C20.6842 346.356 20.1246 341.557 20.1246 341.557L17.333 347.013L15.2978 345.97C15.2978 345.97 20.725 331.12 21.4339 329.759C22.1428 328.398 23.9948 328.923 23.9948 328.923V328.896L24.2797 328.117L27.2308 320.047L35.3477 323.542L29.1031 331.964C29.1031 331.964 29.137 334.896 29.3643 337.721C29.5305 339.732 29.7917 341.676 30.2157 342.431C30.5856 343.049 31.1377 343.537 31.7963 343.83C32.6375 344.239 33.3872 344.507 33.377 345.523Z" fill="#FFBD8B"/>
<path d="M36.0227 221.109C27.3935 234.316 37.3625 274.51 37.3625 274.51C37.3625 274.51 27.3867 303.423 25.0938 322.932L33.7195 326.952C33.7195 326.952 59.6105 282.739 59.027 275.847C58.4436 268.956 47.7148 221.109 47.7148 221.109H36.0227Z" fill="#E26F88"/>
<path d="M67.1746 234.266C70.6242 266.437 67.1746 292.258 67.1746 292.258L60.6552 340.298L48.1965 339.15L50.3029 290.92C50.3029 290.92 41.4838 260.487 40.144 254.171C38.8042 247.855 38.4175 232.928 38.4175 232.928" fill="#F8778D"/>
<path d="M34.8491 170.675C18.8628 176.849 16.563 210.34 14.8365 236.561C14.8365 236.561 20.6028 237.327 24.8055 236.561L27.1086 215.125C27.1086 215.125 34.571 199.815 38.4175 189.48" fill="#2ED4E2"/>
<path d="M67.6902 234.628C67.7742 235.657 67.7298 236.692 67.5579 237.709C50.113 245.366 31.5182 238.861 32.0914 232.352C34.9678 220.5 35.7344 210.723 32.0914 204.407C30.4904 201.631 28.5163 197.668 27.5937 192.992C26.4166 187.039 26.9356 179.927 32.0914 172.636C35.5411 169.192 39.3774 168.999 50.3029 172.636C64.7086 177.431 69.4743 180.675 69.4743 188.891C69.4743 192.145 69.091 208.607 66.9812 214.54C65.2513 219.44 67.412 228.942 67.6902 234.628Z" fill="#2ED4E2"/>
<g style="mix-blend-mode:multiply" opacity="0.31">
<path d="M67.5579 237.726C50.113 245.383 31.5182 238.878 32.0914 232.369C34.9678 220.517 35.7344 210.74 32.0914 204.424C30.4904 201.648 28.5163 197.685 27.5937 193.009C31.603 201.83 37.3185 205.379 46.66 221.81C52.6468 232.345 60.506 235.065 67.6902 234.614C67.7768 235.653 67.7324 236.699 67.5579 237.726Z" fill="#2C4E8E"/>
</g>
<path d="M33.377 345.523C33.377 347.216 25.7824 351.537 22.2106 348.425C20.6842 346.356 20.1246 341.557 20.1246 341.557L17.333 347.013L15.2978 345.97C15.2978 345.97 20.725 331.121 21.4339 329.759C22.1428 328.398 23.9948 328.923 23.9948 328.923V328.896C26.2776 330.704 27.2613 335.33 29.3643 337.7C29.5305 339.712 29.7917 341.656 30.2157 342.411C30.5856 343.029 31.1377 343.517 31.7963 343.809C32.6375 344.24 33.3872 344.507 33.377 345.523Z" fill="#364085"/>
<path d="M56.3779 176.395C56.3779 176.395 43.9768 182.189 43.9768 172.914V164.404C41.7276 162.55 39.9813 160.162 38.8984 157.458C37.8155 154.754 37.4308 151.822 37.7797 148.931C38.9398 138.874 55.2145 131.525 62.9651 141.193C67.2254 147.384 66.2858 165.504 64.9019 168.285C62.9651 172.152 55.9878 168.671 55.9878 168.671L56.3779 176.395Z" fill="#FFBD8B"/>
<path d="M57.9144 155.894C57.9144 152.027 64.1116 149.703 66.0552 146.222C66.5178 145.358 66.8601 144.436 67.0728 143.479C67.2971 142.51 67.3225 141.506 67.1477 140.527C66.9728 139.548 66.6011 138.615 66.0552 137.783C65.338 136.679 64.3534 135.773 63.1924 135.149C63.1042 135.101 63.0227 135.054 62.9515 135.006C61.7881 134.231 45.5134 126.879 37.7661 142.355C30.0155 149.703 36.6027 161.698 43.9633 164.404C43.9633 168.275 54.4241 167.113 54.8176 164.404C55.2111 161.695 57.9144 155.894 57.9144 155.894Z" fill="#0F183F"/>
<g style="mix-blend-mode:multiply">
<path d="M55.9099 168.698L56.1202 172.897C55.0066 172.113 54.0693 171.106 53.3683 169.94C52.6674 168.773 52.2183 167.474 52.0498 166.124C53.5092 167.199 55.0427 168.17 56.6391 169.03C56.1846 168.837 55.9099 168.698 55.9099 168.698Z" fill="#FFBD8B"/>
</g>
<path d="M40.4052 155.217C43.9214 155.217 46.7719 152.371 46.7719 148.86C46.7719 145.35 43.9214 142.504 40.4052 142.504C36.8889 142.504 34.0385 145.35 34.0385 148.86C34.0385 152.371 36.8889 155.217 40.4052 155.217Z" fill="#FBB40A"/>
<path d="M41.3447 142.009C41.7776 141.036 41.8445 139.939 41.5329 138.921C41.2214 137.902 40.5524 137.03 39.6487 136.464C38.7449 135.898 37.6671 135.676 36.6129 135.839C35.5587 136.003 34.5988 136.54 33.9095 137.353C33.3695 136.741 32.6556 136.308 31.863 136.112C31.0704 135.915 30.2367 135.964 29.4727 136.253C28.7088 136.541 28.051 137.055 27.5868 137.726C27.1226 138.397 26.8742 139.193 26.8745 140.008C26.877 140.22 26.8951 140.432 26.9288 140.641C25.1825 140.091 23.2898 140.244 21.6551 141.068C20.0205 141.892 18.7734 143.322 18.1804 145.052C17.5873 146.781 17.6954 148.674 18.4814 150.325C19.2674 151.977 20.6691 153.256 22.3869 153.889C22.3546 154.1 22.3376 154.312 22.3361 154.526C22.3211 155.559 22.6779 156.564 23.3416 157.358C24.0054 158.151 24.9321 158.681 25.9536 158.851C26.9751 159.02 28.0237 158.819 28.909 158.282C29.7943 157.746 30.4576 156.911 30.7787 155.928C32.6362 157.162 34.8953 157.643 37.0958 157.273C39.2963 156.903 41.2725 155.708 42.6218 153.934C43.9711 152.159 44.5919 149.938 44.3577 147.722C44.1236 145.507 43.0521 143.464 41.3616 142.009H41.3447Z" fill="#0F183F"/>
<path d="M56.6764 159.632C58.6415 159.632 60.2346 158.042 60.2346 156.08C60.2346 154.118 58.6415 152.528 56.6764 152.528C54.7113 152.528 53.1182 154.118 53.1182 156.08C53.1182 158.042 54.7113 159.632 56.6764 159.632Z" fill="#0F183F"/>
<path d="M56.6764 160.905C58.6415 160.905 60.2346 159.315 60.2346 157.353C60.2346 155.391 58.6415 153.801 56.6764 153.801C54.7113 153.801 53.1182 155.391 53.1182 157.353C53.1182 159.315 54.7113 160.905 56.6764 160.905Z" fill="#FFBD8B"/>
<path d="M360 209.944V261.777L355.21 264.842L354.956 265.004L350.17 262.241V215.732L355.187 212.775L360 209.944Z" fill="#A067F4"/>
<path d="M360 209.944L355.187 212.775L350.17 215.732L250.029 157.949V152.558L250.477 152.328L255.409 149.808L360 209.944Z" fill="#FB79C3"/>
<path d="M355.211 212.792V265.15L354.956 265.004L350.17 262.241L250.029 204.431V152.07L250.477 152.328L355.187 212.775L355.211 212.792Z" fill="#FB95E1"/>
<path d="M262.264 185.162L261.819 184.908V190.946L262.264 191.204L343.311 237.991V231.949L262.264 185.162Z" fill="white"/>
<path d="M261.819 196.734V202.772L262.264 203.029L343.311 249.816V243.778L262.264 196.991L261.819 196.734Z" fill="white"/>
<path d="M319.324 201.245L285.804 181.895V187.933L319.324 207.286V201.245Z" fill="white"/>
<path d="M318.214 253.24V284.96L315.284 286.836L315.128 286.935L312.2 285.245V256.782L315.267 254.974L318.214 253.24Z" fill="#A067F4"/>
<path d="M318.214 253.239L315.267 254.973L312.2 256.782L250.914 221.421V218.119L251.186 217.98L254.204 216.436L318.214 253.239Z" fill="#FB79C3"/>
<path d="M315.284 254.984V287.026L315.128 286.934L312.2 285.245L250.914 249.867V217.821L251.186 217.98L315.267 254.973L315.284 254.984Z" fill="#FB95E1"/>
<path d="M258.4 238.075L258.129 237.916V241.614L258.4 241.77L308.001 270.402V266.707L258.4 238.075Z" fill="white"/>
<path d="M258.129 245.153V248.851L258.4 249.007L308.001 277.642V273.944L258.4 245.312L258.129 245.153Z" fill="white"/>
<path d="M293.321 247.916L272.809 236.074V239.769L293.321 251.611V247.916Z" fill="white"/>
</svg>
