<svg width="560" height="280" viewBox="0 0 560 280" fill="none" xmlns="http://www.w3.org/2000/svg">
<g clip-path="url(#clip0_35_132)">
<path d="M184.419 280C167.522 280 150.649 279.698 133.802 279.095C109.73 278.232 84.8378 277.341 61.7016 264.542C45.5168 255.59 31.1827 241.226 20.2493 223.003C12.9415 210.652 7.58316 197.253 4.36241 183.276C-1.64554 157.828 -1.4409 131.314 4.95911 105.962C7.20192 97.2701 10.2938 88.8182 14.1903 80.7279C31.0627 45.879 61.8365 22.4858 98.6215 16.5472C98.9253 16.5078 99.2325 16.5013 99.5377 16.5276C99.7031 16.5365 99.868 16.5459 100.036 16.5389L100.253 16.4703C100.807 16.278 101.377 16.1321 101.956 16.0342C158.688 7.61022 218.663 24.6548 275.39 65.3241C319.252 96.7737 377.382 113.709 453.101 117.097L454.176 117.153C475.254 118.361 495.644 127.029 513.141 142.221C530.412 157.215 543.38 177.22 550.642 200.074C551.535 202.86 552.353 205.761 553.075 208.694C553.746 211.42 553.699 214.273 552.937 216.976C552.175 219.678 550.725 222.138 548.728 224.116V224.121L548.539 224.315C548.086 224.765 547.608 225.197 547.119 225.599L546.545 226.071C541.706 230.047 537.885 233.187 533.31 235.627C530.26 237.242 527.015 238.464 523.655 239.263C505.203 243.75 486.465 247.91 467.961 251.628C432.025 258.855 395.143 264.817 358.338 269.347C300.638 276.443 242.556 280.001 184.419 280ZM99.1075 17.7619C98.9945 17.7609 98.8815 17.7685 98.7697 17.7848C62.3286 23.6679 31.8461 46.8314 15.141 81.3354C11.283 89.3455 8.22168 97.7136 6.00117 106.32C-0.340528 131.447 -0.54262 157.726 5.41189 182.947C8.60111 196.79 13.9075 210.061 21.1447 222.295C31.9711 240.339 46.1587 254.558 62.1738 263.416C85.1023 276.1 109.877 276.988 133.836 277.846C208.772 280.516 283.802 277.259 358.222 268.105C395.003 263.577 431.861 257.62 467.773 250.397C486.265 246.682 504.99 242.525 523.429 238.04C526.709 237.262 529.875 236.07 532.852 234.493C537.334 232.104 541.12 228.993 545.912 225.055L546.486 224.583C546.906 224.237 547.318 223.868 547.713 223.483L547.826 223.365C551.764 219.406 553.296 214.182 552.028 209.034V209.033C551.314 206.131 550.505 203.262 549.621 200.504C534.786 153.817 496.408 120.824 454.124 118.401L453.055 118.345C418.467 116.797 388.201 112.509 360.529 105.235C327.496 96.5511 298.658 83.4795 274.814 66.3836C218.303 25.8702 158.579 8.88901 102.095 17.273C101.567 17.3638 101.048 17.498 100.543 17.6744L100.153 17.7832C99.931 17.7931 99.709 17.7905 99.4877 17.7753C99.3573 17.7686 99.231 17.7619 99.1075 17.7619Z" fill="#F0F0F0"/>
<path d="M174.921 91.2274C173.357 89.7304 171.757 81.3826 169.76 80.5351C171.252 83.8259 170.169 84.6972 170.161 88.3088C170.179 90.3595 169.939 92.4045 169.446 94.3954H135.615V68.0609C135.615 65.6946 136.082 63.3516 136.99 61.1654C137.898 58.9793 139.228 56.993 140.906 55.3198C142.583 53.6466 144.575 52.3194 146.766 51.4139C148.958 50.5084 151.307 50.0424 153.68 50.0425C154.585 50.0601 155.485 50.1915 156.357 50.4335C159.265 51.2165 161.916 52.7485 164.043 54.8758C166.169 57.003 167.698 59.6507 168.475 62.5532C171.054 71.9558 175.156 87.6071 174.921 91.2274Z" fill="#2F2E41"/>
<path d="M137.6 123.624L137.617 103.098L125.519 104.176L129.789 117.122L127.791 149.662C126.822 149.878 125.937 150.372 125.244 151.082C124.551 151.792 124.08 152.687 123.889 153.659C123.698 154.631 123.794 155.638 124.167 156.556C124.539 157.475 125.171 158.265 125.986 158.831C126.801 159.397 127.764 159.715 128.756 159.745C129.749 159.775 130.729 159.516 131.577 159C132.425 158.484 133.104 157.733 133.531 156.839C133.959 155.945 134.116 154.946 133.984 153.964L137.6 123.624Z" fill="#FFB6B6"/>
<path d="M161.407 270.305L166.294 270.304L168.619 251.502H161.405L161.407 270.305Z" fill="#FFB6B6"/>
<path d="M159.751 267.9L167.477 267.44V270.741L174.822 275.801C175.185 276.051 175.458 276.41 175.602 276.826C175.746 277.241 175.753 277.692 175.621 278.112C175.49 278.532 175.228 278.899 174.873 279.159C174.518 279.42 174.088 279.56 173.647 279.56H164.45L162.864 276.295L162.245 279.56H158.777L159.751 267.9Z" fill="#2F2E41"/>
<path d="M133.148 270.305L138.035 270.304L140.36 251.502H133.147L133.148 270.305Z" fill="#FFB6B6"/>
<path d="M131.493 267.9L139.219 267.44V270.741L146.564 275.801C146.926 276.051 147.2 276.41 147.343 276.826C147.487 277.241 147.494 277.692 147.363 278.112C147.232 278.532 146.969 278.899 146.614 279.159C146.259 279.42 145.83 279.56 145.389 279.56H136.191L134.606 276.295L133.987 279.56H130.519L131.493 267.9Z" fill="#2F2E41"/>
<path d="M157.055 80.9312L146.93 81.1292L139.784 88.6533L134.054 89.4915C131.462 89.8706 129.079 91.1256 127.304 93.0466C125.528 94.9676 124.468 97.4382 124.299 100.046L125.292 105.484H131.247L134.693 125.66C133.353 129.065 133.262 131.753 136.012 132.808L144.548 148.847L169.76 137.56C171.038 135.368 171.448 133.166 170.141 131.024L171.943 100.138H178.003C178.003 94.3607 176.044 89.4907 170.289 88.8479C168.003 88.6011 165.706 88.4701 163.407 88.4553L157.055 80.9312Z" fill="#E6E6E6"/>
<path d="M169.76 137.56C169.76 137.56 145.143 141.916 136.012 132.808C136.012 132.808 135.085 134.378 133.688 136.981C133.286 137.73 132.51 138.237 132.041 139.144C131.615 139.968 130.52 140.982 130.056 141.917C129.683 142.669 130.282 143.651 129.893 144.464C125.217 154.247 119.753 168.048 120.924 177.161C121.68 183.038 123.24 196.712 124.883 211.4C125.011 212.547 123.972 214.021 124.101 215.178C124.222 216.269 125.513 217.041 125.635 218.135C125.715 218.861 124.814 219.601 124.895 220.326C124.983 221.121 126.053 221.901 126.141 222.693C128.392 242.973 130.453 261.907 130.453 261.907H141.967L144.14 218.664L142.364 202.902L146.533 171.023L152.29 201.318L153.031 218.368L159.115 262.699H169.76V219.783L170.554 217.554L169.76 214.695L170.554 211.614L169.76 208.259V137.56Z" fill="#2F2E41"/>
<path d="M160.162 75.075C158.594 77.1529 156.363 78.6362 153.836 79.2804C151.31 79.9247 148.639 79.6917 146.263 78.6196C143.887 77.5475 141.948 75.7003 140.766 73.3823C139.583 71.0643 139.227 68.4137 139.756 65.8669C140.286 63.3202 141.669 61.0292 143.678 59.3712C145.687 57.7133 148.203 56.7872 150.81 56.7456C153.417 56.704 155.961 57.5493 158.022 59.1422C160.084 60.7352 161.54 62.9809 162.15 65.5095C162.183 65.6467 162.211 65.7831 162.238 65.9247C162.561 67.5096 162.543 69.1448 162.185 70.7221C161.827 72.2994 161.137 73.7831 160.162 75.075Z" fill="#FFB6B6"/>
<path d="M157.769 68.5438C157.526 67.3251 156.91 66.2115 156.006 65.3559C156.096 66.5238 155.933 67.6972 155.53 68.7973C152.512 69.0639 149.48 68.4648 146.791 67.0707C144.766 65.7005 142.19 65.8193 139.188 67.0707C139.188 65.6145 139.475 64.1725 140.034 62.8272C140.592 61.4818 141.411 60.2594 142.444 59.2297C143.476 58.2 144.702 57.3833 146.05 56.8261C147.399 56.2689 148.845 55.9822 150.305 55.9824H152.29C155.238 55.983 158.066 57.1514 160.15 59.2307C162.235 61.31 163.407 64.1301 163.407 67.0707C161.575 67.7261 159.688 68.2191 157.769 68.5438Z" fill="#2F2E41"/>
<path d="M70.9193 209.868C88.5578 209.868 102.857 195.606 102.857 178.013C102.857 160.42 88.5578 146.158 70.9193 146.158C53.2807 146.158 38.9818 160.42 38.9818 178.013C38.9818 195.606 53.2807 209.868 70.9193 209.868Z" fill="#F0F0F0"/>
<path d="M274.442 63.7099C292.081 63.7099 306.379 49.4479 306.379 31.8549C306.379 14.2619 292.081 0 274.442 0C256.803 0 242.505 14.2619 242.505 31.8549C242.505 49.4479 256.803 63.7099 274.442 63.7099Z" fill="#F0F0F0"/>
<path d="M528.063 214.865C545.701 214.865 560 200.603 560 183.01C560 165.417 545.701 151.155 528.063 151.155C510.424 151.155 496.125 165.417 496.125 183.01C496.125 200.603 510.424 214.865 528.063 214.865Z" fill="#F0F0F0"/>
<path d="M332.055 35.3289V107.562C332.055 109.063 331.461 110.502 330.403 111.569C329.345 112.635 327.908 113.243 326.404 113.258C326.383 113.26 326.362 113.261 326.341 113.261H317.912C311.168 113.261 304.7 110.589 299.932 105.832C295.163 101.076 292.484 94.6244 292.484 87.8977V35.3289C292.484 33.8176 293.086 32.3681 294.157 31.2994C295.228 30.2308 296.682 29.6304 298.197 29.6304H301.612C300.03 34.2341 321.505 36.1724 322.683 29.6304H326.341C327.857 29.6304 329.31 30.2308 330.381 31.2995C331.453 32.3681 332.055 33.8176 332.055 35.3289Z" fill="#6C63FF"/>
<path d="M307.041 24.2287C307.042 24.0307 307.121 23.8409 307.261 23.7009C307.401 23.5609 307.592 23.4822 307.79 23.4819H312.882C313.08 23.4825 313.27 23.5614 313.41 23.7014C313.55 23.8414 313.628 24.031 313.628 24.2287C313.628 24.4264 313.55 24.6161 313.41 24.7561C313.27 24.8961 313.08 24.975 312.882 24.9756H307.79C307.592 24.9753 307.401 24.8966 307.261 24.7566C307.121 24.6166 307.042 24.4267 307.041 24.2287Z" fill="#3F3D56"/>
<path d="M328.091 122.423H295.893C293.395 122.42 291 121.429 289.233 119.667C287.467 117.905 286.473 115.517 286.47 113.025V62.5311C286.293 62.4045 286.149 62.2376 286.05 62.0444C285.951 61.8512 285.899 61.6371 285.9 61.4201V56.3418C285.899 56.1247 285.951 55.9107 286.05 55.7175C286.149 55.5244 286.293 55.3576 286.47 55.231V53.868C286.293 53.7415 286.149 53.5747 286.05 53.3815C285.951 53.1883 285.899 52.9743 285.9 52.7573V47.6787C285.899 47.4617 285.951 47.2477 286.05 47.0545C286.149 46.8613 286.293 46.6945 286.47 46.568V44.1046C286.252 43.9877 286.07 43.8137 285.943 43.6014C285.816 43.3891 285.749 43.1464 285.75 42.8993V37.821C285.749 37.5738 285.816 37.3311 285.943 37.1187C286.07 36.9064 286.252 36.7324 286.47 36.6154V29.8655C286.473 27.3739 287.467 24.9852 289.233 23.2234C291 21.4616 293.395 20.4706 295.893 20.4678H328.091C330.589 20.4706 332.983 21.4616 334.75 23.2234C336.516 24.9852 337.51 27.374 337.513 29.8655V44.5788C337.682 44.6847 337.822 44.8319 337.919 45.0065C338.016 45.1811 338.067 45.3774 338.067 45.577V55.2603C338.067 55.46 338.016 55.6563 337.919 55.831C337.822 56.0057 337.682 56.1529 337.513 56.2588V113.025C337.51 115.517 336.516 117.905 334.75 119.667C332.983 121.429 330.589 122.42 328.091 122.423ZM295.893 21.717C293.727 21.7194 291.65 22.5787 290.118 24.1063C288.587 25.6339 287.725 27.7051 287.723 29.8655V37.678L287.12 37.7012C287.089 37.7023 287.059 37.7153 287.037 37.7376C287.015 37.7599 287.003 37.7898 287.002 37.821V42.8993C287.003 42.9305 287.015 42.9603 287.037 42.9826C287.059 43.0048 287.089 43.0179 287.12 43.0191L287.723 43.042V47.445L287.246 47.5622C287.22 47.5685 287.196 47.5834 287.179 47.6045C287.162 47.6255 287.153 47.6516 287.152 47.6787V52.7573C287.153 52.7843 287.162 52.8104 287.179 52.8315C287.196 52.8526 287.22 52.8674 287.246 52.8738L287.723 52.9909V56.1081L287.246 56.2252C287.22 56.2316 287.196 56.2465 287.179 56.2675C287.162 56.2886 287.153 56.3147 287.152 56.3417V61.42C287.153 61.4471 287.162 61.4733 287.179 61.4944C287.196 61.5155 287.22 61.5304 287.246 61.5368L287.723 61.6539V113.025C287.725 115.186 288.587 117.257 290.118 118.784C291.65 120.312 293.727 121.171 295.893 121.174H328.091C330.256 121.171 332.333 120.312 333.865 118.784C335.396 117.257 336.258 115.185 336.26 113.025V55.1892H336.815V45.6484H336.26V29.8655C336.258 27.7051 335.396 25.634 333.865 24.1063C332.333 22.5787 330.256 21.7194 328.091 21.717L295.893 21.717Z" fill="#3F3D56"/>
<path d="M315.727 24.9756C316.14 24.9756 316.476 24.6412 316.476 24.2287C316.476 23.8163 316.14 23.4819 315.727 23.4819C315.313 23.4819 314.978 23.8163 314.978 24.2287C314.978 24.6412 315.313 24.9756 315.727 24.9756Z" fill="#3F3D56"/>
<path d="M152.849 168.895H69.0681C67.8783 168.892 66.7382 168.42 65.8968 167.58C65.0555 166.741 64.5814 165.604 64.5781 164.418V123.7C64.5812 122.513 65.0551 121.376 65.8964 120.537C66.7376 119.698 67.8777 119.225 69.0675 119.222H152.848C154.038 119.225 155.178 119.697 156.019 120.537C156.861 121.376 157.335 122.513 157.338 123.699V164.417C157.335 165.604 156.861 166.741 156.02 167.58C155.179 168.419 154.039 168.892 152.849 168.895Z" fill="white"/>
<path d="M152.849 168.895H69.0681C67.8783 168.892 66.7382 168.42 65.8968 167.58C65.0555 166.741 64.5814 165.604 64.5781 164.418V123.7C64.5812 122.513 65.0551 121.376 65.8964 120.537C66.7376 119.698 67.8777 119.225 69.0675 119.222H152.848C154.038 119.225 155.178 119.697 156.019 120.537C156.861 121.376 157.335 122.513 157.338 123.699V164.417C157.335 165.604 156.861 166.741 156.02 167.58C155.179 168.419 154.039 168.892 152.849 168.895ZM69.0681 120.471C68.2101 120.473 67.388 120.815 66.7814 121.42C66.1748 122.025 65.833 122.845 65.8306 123.701V164.417C65.8331 165.273 66.175 166.093 66.7818 166.698C67.3885 167.303 68.2107 167.644 69.0687 167.646H152.848C153.706 167.644 154.528 167.303 155.135 166.698C155.741 166.092 156.083 165.272 156.086 164.416V123.7C156.083 122.844 155.741 122.024 155.134 121.419C154.528 120.814 153.706 120.473 152.848 120.471L69.0681 120.471Z" fill="#3F3D56"/>
<path d="M115.449 162.878C98.9253 162.878 81.6959 162.721 75.2675 162.619C74.4217 162.601 73.6162 162.255 73.0231 161.653C72.4299 161.051 72.0961 160.242 72.0928 159.399V125.694C72.0931 125.392 72.2134 125.102 72.4274 124.888C72.6413 124.674 72.9315 124.553 73.2344 124.552H148.679C148.982 124.553 149.272 124.673 149.487 124.886C149.701 125.099 149.822 125.389 149.823 125.691V148.559C149.809 152.292 148.329 155.87 145.7 158.527C143.071 161.184 139.502 162.707 135.76 162.77C129.769 162.848 122.675 162.878 115.449 162.878Z" fill="#6C63FF"/>
<path d="M144.201 146.458H76.0306C75.4598 146.456 74.9033 146.279 74.4367 145.951C73.9702 145.623 73.6162 145.16 73.4229 144.624L65.7071 123.034C65.5584 122.617 65.512 122.171 65.5719 121.733C65.6318 121.296 65.7962 120.878 66.0513 120.517C66.3064 120.155 66.6447 119.86 67.0379 119.656C67.431 119.452 67.8675 119.345 68.3107 119.344L153.522 119.226C153.927 119.226 154.328 119.314 154.695 119.484C155.062 119.655 155.387 119.904 155.648 120.213C155.908 120.523 156.097 120.886 156.201 121.276C156.306 121.666 156.323 122.075 156.252 122.473L156.318 122.5L156.073 123.07L156.071 123.076L146.743 144.784C146.531 145.281 146.177 145.705 145.724 146.002C145.272 146.3 144.743 146.458 144.201 146.458ZM153.526 120.475L68.3131 120.594C68.0704 120.594 67.8312 120.653 67.6159 120.764C67.4005 120.876 67.2151 121.038 67.0754 121.236C66.9356 121.434 66.8455 121.662 66.8127 121.902C66.7799 122.142 66.8053 122.386 66.8867 122.614L74.6023 144.204C74.7083 144.497 74.9024 144.751 75.1581 144.931C75.4137 145.111 75.7187 145.208 76.0315 145.209H144.201C144.497 145.209 144.787 145.122 145.035 144.959C145.282 144.796 145.476 144.564 145.592 144.292L154.92 122.583C155.019 122.353 155.059 122.102 155.037 121.853C155.014 121.604 154.93 121.364 154.792 121.155C154.654 120.946 154.466 120.775 154.245 120.656C154.024 120.537 153.777 120.475 153.526 120.475Z" fill="#3F3D56"/>
<path d="M110.831 151.158C113.779 151.158 116.169 148.774 116.169 145.833C116.169 142.893 113.779 140.509 110.831 140.509C107.883 140.509 105.493 142.893 105.493 145.833C105.493 148.774 107.883 151.158 110.831 151.158Z" fill="white"/>
<path d="M312.475 104.936C315.423 104.936 317.813 102.553 317.813 99.6122C317.813 96.6718 315.423 94.2881 312.475 94.2881C309.527 94.2881 307.137 96.6718 307.137 99.6122C307.137 102.553 309.527 104.936 312.475 104.936Z" fill="white"/>
<path d="M514.367 176.839L500.108 162.797C499.414 162.108 498.59 161.563 497.684 161.192C496.778 160.821 495.808 160.632 494.829 160.636H494.779C493.792 160.639 492.816 160.837 491.906 161.219C490.997 161.6 490.173 162.158 489.481 162.86C486.293 166.078 484.479 170.404 484.422 174.928C484.365 179.452 486.068 183.822 489.174 187.12C489.324 187.282 489.481 187.438 489.637 187.594C490.505 188.454 491.462 189.218 492.493 189.874C495.312 191.691 498.599 192.652 501.955 192.641H502.062C504.365 192.633 506.644 192.17 508.767 191.278C510.89 190.386 512.815 189.083 514.43 187.444C515.829 186.028 516.608 184.117 516.596 182.129C516.585 180.14 515.783 178.238 514.367 176.839ZM513.54 186.564C510.893 189.224 507.407 190.892 503.67 191.288C499.933 191.684 496.174 190.783 493.025 188.737C492.125 188.143 491.284 187.463 490.514 186.707C487.442 183.681 485.7 179.561 485.673 175.254C485.646 170.947 487.336 166.805 490.37 163.741C490.947 163.154 491.635 162.688 492.394 162.37C493.153 162.051 493.968 161.887 494.791 161.886H494.829C495.644 161.883 496.452 162.04 497.206 162.349C497.961 162.657 498.647 163.111 499.225 163.684L513.484 177.732C514.664 178.896 515.333 180.48 515.344 182.136C515.354 183.792 514.706 185.384 513.54 186.564Z" fill="#3F3D56"/>
<path d="M467.582 130.755L453.323 116.708C451.919 115.319 450.021 114.541 448.044 114.546H448C447.012 114.55 446.035 114.749 445.124 115.132C444.214 115.515 443.388 116.074 442.696 116.776C440.06 119.446 438.351 122.888 437.819 126.597C437.287 130.307 437.96 134.088 439.74 137.388L439.746 137.394C440.48 138.744 441.392 139.99 442.458 141.098C442.577 141.236 442.714 141.373 442.852 141.511C446.127 144.753 450.556 146.567 455.17 146.557H455.283C457.587 146.548 459.866 146.083 461.989 145.19C464.111 144.297 466.036 142.993 467.651 141.354C468.344 140.654 468.892 139.824 469.264 138.912C469.636 138.001 469.824 137.025 469.817 136.04C469.811 135.056 469.61 134.083 469.227 133.176C468.843 132.269 468.284 131.446 467.582 130.755ZM466.755 140.48C465.256 142.001 463.47 143.211 461.5 144.039C459.53 144.868 457.415 145.299 455.277 145.308H455.17C451.959 145.307 448.82 144.359 446.148 142.583C443.476 140.807 441.39 138.282 440.152 135.327C438.915 132.372 438.581 129.117 439.193 125.973C439.805 122.829 441.335 119.936 443.591 117.657C444.759 116.48 446.347 115.813 448.007 115.802C449.667 115.791 451.264 116.438 452.446 117.601L466.705 131.642C467.885 132.808 468.553 134.394 468.562 136.051C468.571 137.707 467.922 139.3 466.755 140.48Z" fill="#3F3D56"/>
<path d="M515.278 181.253L499.558 165.767C498.527 164.753 497.136 164.189 495.688 164.198C494.241 164.207 492.857 164.788 491.838 165.814C490.565 167.098 489.557 168.619 488.873 170.291C488.19 171.963 487.843 173.753 487.853 175.559C487.863 177.365 488.23 179.151 488.933 180.815C489.636 182.479 490.66 183.989 491.949 185.258C493.237 186.527 494.763 187.53 496.44 188.211C498.117 188.891 499.912 189.235 501.723 189.222C503.533 189.21 505.324 188.842 506.991 188.139C508.659 187.437 510.172 186.413 511.443 185.127L515.278 181.253Z" fill="#6C63FF"/>
<path d="M468.496 135.167L452.776 119.681C451.745 118.667 450.353 118.103 448.906 118.112C447.459 118.121 446.074 118.703 445.056 119.728C443.782 121.012 442.775 122.533 442.091 124.205C441.407 125.877 441.06 127.667 441.071 129.473C441.081 131.279 441.448 133.065 442.151 134.729C442.853 136.393 443.878 137.903 445.166 139.172C446.454 140.441 447.981 141.444 449.658 142.125C451.335 142.805 453.13 143.149 454.941 143.136C456.751 143.124 458.541 142.756 460.209 142.053C461.877 141.351 463.389 140.327 464.66 139.041L468.496 135.167Z" fill="#6C63FF"/>
<path d="M498.004 190.899L497.628 191.885C495.862 191.217 494.15 190.547 492.493 189.874C463.136 177.925 449.121 163.94 439.746 137.395L439.74 137.388C439.295 136.139 438.863 134.861 438.444 133.553L439.433 133.235C439.764 134.492 440.248 135.705 440.873 136.845C441.387 138.3 441.915 139.718 442.458 141.099C451.269 163.503 464.263 176.308 489.174 187.12C490.426 187.663 491.71 188.202 493.025 188.737C494.552 189.73 496.235 190.46 498.004 190.899Z" fill="#3F3D56"/>
<path d="M453.061 145.421L452.181 146.31L484.706 178.351L485.586 177.462L453.061 145.421Z" fill="#3F3D56"/>
<path d="M177.7 118.872L177.717 98.3457L165.62 99.4239L169.889 112.37L154.392 135.801C153.423 136.018 152.538 136.512 151.845 137.222C151.152 137.931 150.682 138.827 150.49 139.799C150.299 140.771 150.395 141.778 150.768 142.696C151.14 143.614 151.772 144.405 152.587 144.971C153.402 145.537 154.365 145.855 155.358 145.885C156.35 145.915 157.33 145.656 158.178 145.14C159.026 144.624 159.705 143.873 160.132 142.979C160.56 142.085 160.717 141.086 160.585 140.104L177.7 118.872Z" fill="#FFB6B6"/>
</g>
<defs>
<clipPath id="clip0_35_132">
<rect width="560" height="280" fill="white"/>
</clipPath>
</defs>
</svg>
